<svg width="153" height="66" viewBox="0 0 153 66" fill="none" xmlns="http://www.w3.org/2000/svg">
<g clip-path="url(#clip0_9_326)">
<mask id="mask0_9_326" style="mask-type:luminance" maskUnits="userSpaceOnUse" x="105" y="1" width="48" height="64">
<path d="M105.839 8.77804L136.8 1.4873L152.976 57.3042L122.015 64.595L105.839 8.77804Z" fill="white"/>
</mask>
<g mask="url(#mask0_9_326)">
<path d="M87.1961 40.7165C88.0361 40.4815 89.1665 40.3646 90.2849 40.6663C91.3721 40.9826 92.36 41.5882 93.0336 42.1135C93.1648 42.2182 93.2776 42.3153 93.3896 42.4103C92.3664 40.4494 91.6809 38.3483 91.3953 36.2018C91.1353 36.2724 90.7192 36.3704 90.2136 36.4358C89.3544 36.5401 88.1872 36.5509 87.1712 35.9823C86.6624 35.6982 86.2265 35.2942 85.8633 34.8402C85.5113 34.3863 85.2648 33.8838 85.0656 33.4171C84.8608 32.9493 84.7608 32.5174 84.6992 32.2051C84.636 31.8907 84.6136 31.6975 84.6136 31.6975C84.6136 31.6975 85.2625 31.5587 86.1401 31.623C87.0161 31.6829 88.1177 31.9464 89.0417 32.5974C89.4937 32.923 89.8912 33.3103 90.224 33.7037C90.5584 34.0965 90.7952 34.4961 91.032 34.8513C91.1416 35.0241 91.2344 35.1866 91.3136 35.3361C91.2928 35.0958 91.2625 34.8577 91.2521 34.6174C91.1585 32.6617 91.4048 30.7006 91.9544 28.8176C91.6872 28.7989 91.224 28.7538 90.68 28.6343C89.828 28.4428 88.7753 28.0743 88.0393 27.2038C87.2825 26.3313 87.0912 25.1202 87.1024 24.1205C87.124 23.6274 87.1897 23.1893 87.2505 22.8761C87.3081 22.5612 87.3696 22.374 87.3696 22.374C87.3696 22.374 88.0353 22.4624 88.8289 22.8127C89.6257 23.1596 90.5272 23.7599 91.1464 24.679C91.4568 25.1383 91.648 25.6209 91.7928 26.0936C91.9512 26.5699 92.0408 27.0298 92.0872 27.4298C92.1304 27.7023 92.1552 27.9486 92.1712 28.1549C92.6072 26.8452 93.184 25.5792 93.8984 24.3812C93.8856 24.3375 93.8745 24.2911 93.8617 24.238C93.8041 23.9926 93.74 23.6409 93.7464 23.2355C93.7328 22.4168 93.9536 21.3257 94.7224 20.4466C95.4872 19.5637 96.6097 19.1171 97.4865 18.9387C98.3801 18.7657 99.0193 18.8088 99.0193 18.8088C99.0193 18.8088 98.9824 19.4176 98.7896 20.1613C98.6 20.9203 98.2985 21.8204 97.6633 22.556C97.0241 23.2879 96.1224 23.7618 95.3584 24.1052C94.9632 24.2682 94.624 24.4018 94.3776 24.4925C94.3336 24.5076 94.296 24.521 94.2592 24.5345C93.5816 25.7097 93.04 26.9464 92.6376 28.2202C92.7664 28.0686 92.9169 27.9047 93.0984 27.7335C93.4128 27.461 93.792 27.1825 94.2248 26.9638C94.6696 26.7495 95.188 26.604 95.732 26.5646C96.8144 26.4871 97.88 26.8714 98.6664 27.2256C99.452 27.5846 99.9745 27.9239 99.9745 27.9239C99.9745 27.9239 99.8896 27.9952 99.7488 28.1125C99.6024 28.2286 99.3824 28.3832 99.0904 28.5454C98.5424 28.8822 97.7009 29.2695 96.6625 29.4486C95.6049 29.6208 94.4744 29.5016 93.624 29.3002C93.0896 29.1762 92.6641 29.0196 92.4193 28.9208C91.9169 30.7716 91.7104 32.6859 91.8352 34.5898C91.8496 34.8153 91.8817 35.0413 91.9057 35.2668C91.9585 35.1191 92.0201 34.9597 92.0953 34.7926C92.2433 34.4354 92.5168 34.0488 92.836 33.7029C93.1568 33.3564 93.5537 33.0481 94.0641 32.8322C95.0633 32.4031 96.1856 32.4074 97.06 32.4792C97.936 32.5556 98.5656 32.6969 98.5656 32.6969C98.5656 32.6969 98.5232 32.7908 98.4272 32.9466C98.3304 33.1002 98.172 33.3172 97.992 33.5651C97.8072 33.8141 97.5385 34.0945 97.2281 34.3801C96.9281 34.6657 96.5536 34.9545 96.088 35.2112C95.1568 35.7247 94.0993 35.9856 93.2193 36.0807C92.7089 36.1379 92.2768 36.1391 92.004 36.1287C92.3152 38.178 93.0009 40.1716 93.9969 42.0291C93.9977 41.9262 94.0009 41.8204 94.0073 41.7113C94.0489 40.9239 94.2672 39.9736 95.0576 39.2318C95.8152 38.5001 96.8584 38.1353 97.7032 37.9106C98.548 37.693 99.1896 37.6189 99.1896 37.6189C99.1896 37.6189 99.1776 38.0282 98.9824 38.6322C98.8584 39.2077 98.5184 40.0139 97.8784 40.7929C97.252 41.5613 96.34 42.1661 95.5672 42.5419C95.1528 42.7446 94.7808 42.8811 94.5224 42.9653C95.008 43.7616 95.5497 44.5307 96.1521 45.2599C96.9089 46.1418 97.74 46.9688 98.6352 47.734C98.6048 47.6663 98.5744 47.6057 98.5456 47.5331C98.4096 47.1591 98.2728 46.7499 98.2592 46.2861C98.2496 45.819 98.3208 45.3375 98.5216 44.877C98.92 43.9542 99.7424 43.268 100.437 42.7822C101.134 42.298 101.706 42.0141 101.706 42.0141C101.706 42.0141 101.874 42.3852 101.938 43.0052C102.002 43.6253 102.088 44.4249 101.775 45.3951C101.487 46.3361 100.902 47.1837 100.329 47.7951C100.051 48.0963 99.78 48.3329 99.5784 48.4972C99.9312 48.7644 100.29 49.0256 100.662 49.2697C102.07 50.1754 103.589 50.9269 105.18 51.5282C105.158 51.5055 105.135 51.4876 105.113 51.4647C104.53 50.9063 104.028 49.9759 104.025 48.996C104.018 48.0146 104.516 47.0894 104.968 46.404C105.421 45.7229 105.832 45.2803 105.832 45.2803C105.832 45.2803 106.143 45.5643 106.458 46.1161C106.536 46.2541 106.617 46.4079 106.695 46.5809C106.778 46.7413 106.862 46.9081 106.937 47.096C107.089 47.4689 107.21 47.9071 107.263 48.3991C107.362 49.3962 107.162 50.3656 106.871 51.1277C106.742 51.4732 106.6 51.7613 106.482 51.978C108.41 52.5329 110.402 52.8622 112.414 52.9515C112.525 52.9533 112.633 52.9464 112.744 52.9483C112.376 52.7874 111.992 52.5276 111.65 52.2088C111.295 51.8791 110.987 51.4894 110.786 51.0325C110.387 50.12 110.484 49.0626 110.628 48.2887C110.778 47.5038 110.982 46.9538 110.982 46.9538C110.982 46.9489 111.08 47.0193 111.244 47.1068C111.408 47.1942 111.637 47.3342 111.892 47.5333C112.15 47.7224 112.438 48.0164 112.729 48.2984C113.018 48.5897 113.308 48.951 113.554 49.3883C114.047 50.2668 114.254 51.2828 114.289 52.0778C114.306 52.403 114.295 52.6856 114.277 52.9142C115.737 52.832 117.191 52.6249 118.618 52.3075C120.036 51.9551 121.417 51.4944 122.741 50.9187C122.601 50.7276 122.438 50.4857 122.277 50.1945C121.878 49.4829 121.507 48.5055 121.459 47.5243C121.435 47.0327 121.492 46.5918 121.587 46.2099C121.687 45.8362 121.779 45.4526 121.902 45.1739C122.019 44.8871 122.139 44.6648 122.235 44.5162C122.331 44.3676 122.378 44.2631 122.382 44.2669C122.382 44.2669 122.857 44.657 123.414 45.2754C123.959 45.8872 124.618 46.7666 124.766 47.7381C124.84 48.225 124.782 48.7008 124.649 49.1455C124.524 49.5743 124.33 49.9701 124.097 50.2727C124.192 50.2221 124.29 50.1802 124.386 50.1296C126.092 49.1653 127.651 47.9996 129.031 46.6659C128.812 46.5285 128.53 46.3402 128.231 46.0955C127.564 45.5591 126.864 44.8017 126.409 43.8884C126.186 43.4367 126.056 43.0001 125.986 42.6079C125.95 42.411 125.933 42.2282 125.918 42.052C125.893 41.8687 125.88 41.6991 125.873 41.5419C125.85 40.9216 125.965 40.5373 125.965 40.5373C125.965 40.5373 126.564 40.7417 127.329 41.1361C128.092 41.5353 129.031 42.1222 129.558 42.9812C130.086 43.8374 130.151 44.8704 129.948 45.6142C129.942 45.646 129.93 45.6697 129.924 45.6993C130.982 44.4739 131.899 43.1488 132.64 41.737C132.831 41.3604 133.002 40.9745 133.165 40.5859C132.9 40.5316 132.534 40.4425 132.13 40.3044C131.298 40.024 130.327 39.5425 129.566 38.8486C128.765 38.1429 128.406 37.408 128.126 36.8362C127.845 36.265 127.792 35.8689 127.792 35.8689C127.792 35.8689 128.444 35.8648 129.315 35.9795C130.186 36.0992 131.272 36.3337 132.122 36.9623C132.548 37.2778 132.871 37.6663 133.116 38.0756C133.355 38.484 133.458 38.9033 133.542 39.2898C133.557 39.3659 133.562 39.4299 133.574 39.5042C133.939 38.4421 134.215 37.3544 134.398 36.2515C134.527 35.3522 134.582 34.4426 134.574 33.5318C134.302 33.5723 133.904 33.6171 133.433 33.623C132.555 33.6382 131.43 33.5107 130.468 33.1163C129.487 32.7215 128.75 32.1665 128.332 31.7185C127.837 31.2771 127.602 30.9262 127.602 30.9262C127.602 30.9262 128.202 30.7079 129.056 30.5253C129.913 30.3493 131.021 30.2074 132.081 30.5112C133.172 30.8077 133.878 31.5404 134.342 32.2109C134.408 32.3052 134.468 32.3962 134.524 32.4834C134.386 30.4261 133.901 28.3827 133.061 26.4583C132.828 26.5877 132.451 26.7769 131.975 26.9521C131.154 27.2576 130.091 27.4961 129 27.4587C128.458 27.4394 127.972 27.3529 127.555 27.2363C127.132 27.1235 126.746 26.9973 126.446 26.8622C126.155 26.7254 125.9 26.608 125.731 26.5146C125.564 26.4234 125.475 26.3578 125.475 26.3578C125.475 26.3578 125.947 25.9548 126.67 25.5043C127.396 25.0555 128.37 24.5576 129.474 24.4913C130.038 24.4545 130.55 24.5485 131.018 24.7092C131.485 24.8704 131.933 25.087 132.256 25.333C132.412 25.4457 132.552 25.5553 132.678 25.6632C132.575 25.4565 132.482 25.2447 132.373 25.0418C131.451 23.3276 130.23 21.7473 128.787 20.3544C128.63 20.5479 128.344 20.8722 127.942 21.2166C127.31 21.7672 126.389 22.3693 125.373 22.6856C124.37 22.9871 123.425 23.0182 122.765 22.9681C122.42 22.956 122.146 22.9177 121.956 22.8808C121.769 22.8407 121.657 22.8159 121.657 22.8159C121.657 22.8159 121.928 22.2895 122.418 21.63C122.91 20.9749 123.63 20.1701 124.62 19.7597C125.115 19.5543 125.645 19.4553 126.15 19.4437C126.646 19.4436 127.128 19.517 127.551 19.6182C127.802 19.6852 128.025 19.7635 128.217 19.8397C127.174 18.9059 126.031 18.066 124.803 17.3396C124.763 17.3443 124.724 17.3512 124.676 17.3554C124.412 17.3849 124.044 17.4179 123.611 17.4499C122.758 17.4872 121.714 17.4714 120.76 17.1148C119.807 16.7531 119.053 16.1019 118.478 15.5225C117.905 14.9619 117.544 14.4444 117.544 14.4444C117.544 14.4444 118.078 14.1247 118.952 13.8817C119.814 13.6531 121.034 13.5453 122.181 13.9783C123.329 14.4085 124.115 15.2599 124.546 15.9806C124.773 16.331 124.908 16.6635 124.988 16.906C125.006 16.9579 125.022 17.0032 125.034 17.047C126.31 17.7763 127.5 18.6262 128.588 19.5771C128.49 19.3879 128.378 19.1642 128.267 18.9055C128.094 18.5355 127.922 18.0949 127.799 17.61C127.669 17.134 127.574 16.6264 127.596 16.0911C127.637 15.0168 128.098 14.0958 128.604 13.4416C129.104 12.7869 129.639 12.4158 129.639 12.4158C129.639 12.4158 129.792 12.5526 130.015 12.8011C130.238 13.0475 130.534 13.4027 130.82 13.8211C131.37 14.6888 131.859 15.8273 131.675 16.9237C131.506 18.0072 130.79 18.7923 130.148 19.3358C129.738 19.6797 129.359 19.9231 129.136 20.0575C130.638 21.4598 131.916 23.0594 132.895 24.8065C133.017 25.0208 133.119 25.2417 133.232 25.4605C133.22 25.2952 133.213 25.1124 133.214 24.9135C133.23 24.4988 133.22 24.0459 133.297 23.5562C133.374 23.0665 133.51 22.5532 133.727 22.0701C134.178 21.0955 134.996 20.3798 135.73 19.9407C136.461 19.4978 137.102 19.3328 137.102 19.3328C137.102 19.3328 137.19 19.5129 137.302 19.8132C137.418 20.1152 137.566 20.5336 137.641 21.0319C137.72 21.527 137.78 22.0732 137.717 22.6252C137.646 23.1811 137.488 23.7251 137.195 24.1979C136.618 25.1419 135.594 25.6467 134.788 25.9346C134.31 26.1033 133.896 26.2007 133.63 26.2515C134.546 28.2495 135.086 30.3851 135.259 32.5461C135.303 32.4143 135.35 32.2798 135.409 32.1303C135.714 31.3743 136.245 30.4111 137.022 29.6562C137.833 28.8978 138.883 28.5033 139.742 28.3382C140.594 28.1727 141.259 28.2309 141.259 28.2309C141.259 28.2309 141.302 29.0149 141.102 29.9793C140.83 30.9564 140.355 32.0934 139.415 32.7795C138.458 33.4694 137.337 33.6026 136.459 33.6063C135.983 33.6062 135.584 33.5672 135.314 33.5305C135.339 34.4723 135.298 35.4136 135.179 36.35C135.01 37.5059 134.741 38.6506 134.374 39.7714C134.434 39.7057 134.486 39.6445 134.556 39.5766C134.849 39.2741 135.244 38.9522 135.652 38.639C136.052 38.3231 136.525 38.0296 137.061 37.8123C138.138 37.3788 139.279 37.3599 140.147 37.4894C141.017 37.614 141.608 37.8881 141.608 37.8881C141.608 37.8881 141.31 38.6282 140.73 39.4631C140.151 40.2975 139.15 41.1686 138.042 41.5065C136.894 41.8349 135.771 41.5787 134.958 41.2938C134.554 41.1486 134.219 40.994 133.982 40.8749C133.819 41.282 133.65 41.6838 133.456 42.0796C132.713 43.5599 131.784 44.9579 130.698 46.2575C130.729 46.243 130.754 46.2301 130.786 46.2156C131.622 45.881 132.639 45.4429 133.83 45.4029C135.022 45.3628 136.078 45.712 136.834 46.1202C137.593 46.5227 138.049 46.9781 138.049 46.9781C138.049 46.9781 137.467 47.5633 136.586 48.142C135.738 48.7435 134.429 49.2058 133.26 49.1565C132.08 49.1028 131.122 48.4832 130.479 47.9527C130.183 47.7047 129.949 47.4705 129.779 47.2861C128.362 48.7034 126.747 49.9523 124.969 50.9944C124.87 51.0505 124.767 51.0957 124.667 51.1497C125.113 51.1357 125.594 51.1018 126.109 51.1229C126.646 51.146 127.219 51.2258 127.782 51.4059C128.909 51.7618 129.735 52.4125 130.286 53.0512C130.832 53.6767 131.073 54.2504 131.073 54.2504C131.073 54.2504 130.895 54.3576 130.566 54.4725C130.238 54.5895 129.774 54.7361 129.243 54.8565C128.706 54.9664 128.127 55.0866 127.503 55.0537C126.885 55.0312 126.27 54.9238 125.726 54.6969C124.637 54.239 124.017 53.3856 123.627 52.6717C123.46 52.3609 123.342 52.0781 123.257 51.8553C121.873 52.4731 120.421 52.9808 118.928 53.3744C117.412 53.6893 115.87 53.8845 114.322 53.9476C114.369 54.1816 114.418 54.4809 114.442 54.823C114.493 55.619 114.412 56.635 113.71 57.5147C113.359 57.9546 112.881 58.3171 112.354 58.6093C111.827 58.9132 111.259 59.0633 110.729 59.2044C110.202 59.3357 109.717 59.4102 109.366 59.4529C109.014 59.4984 108.804 59.4826 108.804 59.4826C108.804 59.4826 108.703 58.8782 108.84 58.0895C108.974 57.2898 109.341 56.3581 110.13 55.551C110.525 55.1476 110.982 54.8252 111.437 54.5663C111.875 54.323 112.313 54.1382 112.709 53.9538C112.593 53.9509 112.476 53.9573 112.362 53.9517C110.245 53.8265 108.158 53.4493 106.154 52.838C106.103 53.0739 106.028 53.3812 105.905 53.7278C105.635 54.4731 105.133 55.4367 104.132 56.0038C103.14 56.5643 101.748 56.7358 100.681 56.5854C99.5984 56.4713 98.7737 56.2149 98.7737 56.2149C98.7737 56.2149 98.924 55.6167 99.368 54.9307C99.8064 54.2437 100.537 53.4717 101.598 52.9813C102.659 52.491 103.784 52.4245 104.695 52.3478C104.73 52.3464 104.759 52.3467 104.794 52.3454C103.142 51.693 101.574 50.8833 100.122 49.9177C99.7376 49.6578 99.3713 49.3797 99.0097 49.0983C98.8696 49.3065 98.6593 49.5919 98.3849 49.8947C97.8305 50.5037 96.9896 51.2202 95.8112 51.4393C94.6616 51.633 93.3144 51.315 92.3576 50.8422C91.3984 50.3722 90.7368 49.8555 90.7368 49.8555C90.7368 49.8555 91.1064 49.3553 91.7944 48.864C92.4816 48.3683 93.4873 47.8817 94.6625 47.7847C95.2497 47.7352 95.8193 47.7854 96.3393 47.8849C96.8649 47.9782 97.384 48.0847 97.804 48.2194C97.9024 48.2499 97.98 48.2783 98.0688 48.3088C97.1432 47.4923 96.284 46.6135 95.5097 45.6798C94.8976 44.9157 94.3505 44.1105 93.8633 43.2796C93.6449 43.4314 93.3176 43.6416 92.9048 43.8508C92.1368 44.2348 91.0872 44.6128 89.8776 44.4329C88.6856 44.249 87.6545 43.4668 86.8865 42.7345C86.1953 41.9892 85.8065 41.2889 85.8065 41.2889C85.8065 41.2889 86.3553 40.945 87.1961 40.7165Z" fill="#2E2D2D"/>
</g>
<mask id="mask1_9_326" style="mask-type:luminance" maskUnits="userSpaceOnUse" x="0" y="1" width="48" height="64">
<path d="M47.761 8.77804L16.8 1.4873L0.623728 57.3043L31.5847 64.595L47.761 8.77804Z" fill="white"/>
</mask>
<g mask="url(#mask1_9_326)">
<path d="M66.4039 40.7165C65.5645 40.4815 64.4337 40.3646 63.3153 40.6663C62.2286 40.9826 61.2406 41.5882 60.5665 42.1135C60.4358 42.2182 60.3229 42.3153 60.2105 42.4103C61.2338 40.4494 61.9199 38.3483 62.2051 36.2018C62.465 36.2724 62.8814 36.3704 63.3869 36.4358C64.2462 36.5401 65.4129 36.5509 66.4287 35.9823C66.9378 35.6982 67.3738 35.2942 67.7367 34.8402C68.0894 34.3863 68.3353 33.8838 68.5348 33.4171C68.7398 32.9493 68.8393 32.5174 68.9015 32.2051C68.9643 31.8907 68.9869 31.6975 68.9869 31.6975C68.9869 31.6975 68.3381 31.5587 67.4607 31.623C66.5846 31.6829 65.4824 31.9464 64.5584 32.5974C64.1066 32.923 63.709 33.3103 63.3765 33.7037C63.0415 34.0965 62.8049 34.4961 62.5682 34.8513C62.459 35.0241 62.3657 35.1866 62.2863 35.3361C62.3071 35.0958 62.3376 34.8577 62.3481 34.6174C62.4418 32.6617 62.1951 30.7006 61.6455 28.8176C61.9132 28.7989 62.3762 28.7538 62.9199 28.6343C63.7724 28.4428 64.8254 28.0743 65.561 27.2038C66.3178 26.3313 66.5094 25.1202 66.4983 24.1205C66.4766 23.6274 66.4108 23.1893 66.3498 22.8761C66.292 22.5612 66.2306 22.374 66.2306 22.374C66.2306 22.374 65.5648 22.4624 64.7717 22.8127C63.9743 23.1596 63.0728 23.7599 62.4542 24.679C62.1437 25.1383 61.9524 25.6209 61.8077 26.0936C61.6491 26.5699 61.5595 27.0298 61.513 27.4298C61.4701 27.7023 61.445 27.9486 61.4289 28.1549C60.9934 26.8452 60.4167 25.5792 59.7021 24.3812C59.7147 24.3375 59.7256 24.2911 59.7384 24.238C59.7967 23.9926 59.8601 23.6409 59.8541 23.2355C59.8677 22.4168 59.6466 21.3257 58.8781 20.4466C58.1133 19.5637 56.9906 19.1171 56.1141 18.9387C55.2206 18.7657 54.5809 18.8088 54.5809 18.8088C54.5809 18.8088 54.6178 19.4176 54.8111 20.1613C54.9999 20.9203 55.3022 21.8204 55.9374 22.556C56.5763 23.2879 57.4777 23.7618 58.242 24.1052C58.637 24.2682 58.9762 24.4018 59.2225 24.4925C59.267 24.5076 59.3042 24.521 59.3414 24.5345C60.019 25.7097 60.5605 26.9464 60.9626 28.2202C60.8342 28.0686 60.6838 27.9047 60.502 27.7335C60.1876 27.461 59.8081 27.1825 59.3753 26.9638C58.9309 26.7495 58.4126 26.604 57.8686 26.5646C56.7855 26.4871 55.7203 26.8714 54.9338 27.2256C54.1483 27.5846 53.6258 27.9239 53.6258 27.9239C53.6258 27.9239 53.7106 27.9952 53.8514 28.1125C53.9978 28.2286 54.2178 28.3832 54.5101 28.5454C55.0578 28.8822 55.8994 29.2695 56.9376 29.4486C57.9958 29.6208 59.1257 29.5016 59.9759 29.3002C60.5106 29.1762 60.9365 29.0196 61.1812 28.9208C61.6834 30.7716 61.8898 32.6859 61.7647 34.5898C61.7508 34.8153 61.7187 35.0413 61.6946 35.2668C61.6422 35.1191 61.5804 34.9597 61.5054 34.7926C61.357 34.4354 61.0834 34.0488 60.7646 33.7029C60.4433 33.3564 60.0467 33.0481 59.5359 32.8322C58.5368 32.4031 57.4146 32.4074 56.5402 32.4792C55.6644 32.5556 55.0347 32.6969 55.0347 32.6969C55.0347 32.6969 55.0769 32.7908 55.1732 32.9466C55.2701 33.1002 55.4283 33.3172 55.6084 33.5651C55.7934 33.8141 56.0618 34.0945 56.3723 34.3801C56.6726 34.6657 57.0466 34.9545 57.5122 35.2112C58.4431 35.7247 59.5014 35.9856 60.3814 36.0807C60.8919 36.1379 61.3234 36.1391 61.5965 36.1287C61.2854 38.178 60.5996 40.1716 59.6037 42.0291C59.6026 41.9262 59.5998 41.8204 59.5929 41.7113C59.5511 40.9239 59.3329 39.9736 58.5426 39.2318C57.7854 38.5001 56.7418 38.1353 55.8968 37.9106C55.0523 37.693 54.4105 37.6189 54.4105 37.6189C54.4105 37.6189 54.423 38.0282 54.6182 38.6322C54.7419 39.2077 55.0816 40.0139 55.7222 40.7929C56.348 41.5613 57.2603 42.1661 58.0332 42.5419C58.4475 42.7446 58.8194 42.8811 59.0778 42.9653C58.5924 43.7616 58.0507 44.5307 57.4486 45.2599C56.6917 46.1418 55.8606 46.9688 54.9653 47.734C54.9952 47.6663 55.0256 47.6057 55.0543 47.5331C55.191 47.1591 55.3276 46.7499 55.3412 46.2861C55.3506 45.819 55.2793 45.3375 55.0786 44.877C54.6801 43.9542 53.8582 43.268 53.1634 42.7822C52.4657 42.298 51.8949 42.0141 51.8949 42.0141C51.8949 42.0141 51.7256 42.3852 51.6616 43.0052C51.5976 43.6253 51.5125 44.4249 51.8252 45.3951C52.113 46.3361 52.6978 47.1837 53.2714 47.7951C53.5491 48.0963 53.8199 48.3329 54.0217 48.4972C53.6691 48.7644 53.3106 49.0256 52.9391 49.2697C51.5299 50.1754 50.0111 50.9269 48.4202 51.5282C48.4423 51.5055 48.4654 51.4876 48.4875 51.4647C49.071 50.9063 49.5721 49.9759 49.5758 48.996C49.5825 48.0146 49.0845 47.0894 48.6326 46.404C48.1796 45.7229 47.7679 45.2803 47.7679 45.2803C47.7679 45.2803 47.4568 45.5643 47.1426 46.1161C47.0641 46.2541 46.9835 46.4079 46.905 46.5809C46.8226 46.7413 46.7382 46.9081 46.6632 47.096C46.5114 47.4689 46.3896 47.9071 46.337 48.3991C46.2382 49.3962 46.4381 50.3656 46.729 51.1277C46.8576 51.4732 47.0004 51.7613 47.1175 51.978C45.1904 52.5329 43.1976 52.8622 41.1869 52.9515C41.0758 52.9533 40.9672 52.9464 40.8562 52.9483C41.2241 52.7874 41.6079 52.5276 41.9497 52.2088C42.305 51.8791 42.6133 51.4894 42.8151 51.0325C43.2133 50.12 43.116 49.0626 42.9726 48.2887C42.8222 47.5038 42.619 46.9538 42.619 46.9538C42.6179 46.9489 42.5204 47.0193 42.3562 47.1068C42.192 47.1942 41.9638 47.3342 41.7081 47.5333C41.4502 47.7224 41.1618 48.0164 40.8719 48.2984C40.5818 48.5897 40.2919 48.951 40.047 49.3883C39.5533 50.2668 39.3462 51.2828 39.3112 52.0778C39.2941 52.403 39.3047 52.6856 39.3234 52.9142C37.8637 52.832 36.4094 52.6249 34.9818 52.3075C33.5645 51.9551 32.1836 51.4944 30.8593 50.9187C30.9995 50.7276 31.1622 50.4857 31.3237 50.1945C31.7228 49.4829 32.0934 48.5055 32.1413 47.5243C32.1654 47.0327 32.1081 46.5918 32.0131 46.2099C31.9132 45.8362 31.8212 45.4526 31.6989 45.1739C31.5814 44.8871 31.4608 44.6648 31.365 44.5162C31.2693 44.3676 31.2224 44.2631 31.2187 44.2669C31.2187 44.2669 30.7431 44.657 30.186 45.2754C29.641 45.8872 28.9825 46.7666 28.8346 47.7381C28.7604 48.225 28.8179 48.7008 28.9513 49.1455C29.0764 49.5743 29.2702 49.9701 29.5038 50.2727C29.408 50.2221 29.3095 50.1802 29.2137 50.1296C27.5083 49.1653 25.9487 47.9996 24.5689 46.6659C24.7887 46.5285 25.0695 46.3402 25.3693 46.0955C26.0364 45.5591 26.7366 44.8017 27.1916 43.8884C27.415 43.4367 27.5442 43.0001 27.6142 42.6079C27.6506 42.411 27.6676 42.2282 27.6826 42.052C27.7075 41.8687 27.7207 41.6991 27.7277 41.5419C27.7506 40.9216 27.6358 40.5373 27.6358 40.5373C27.6358 40.5373 27.0366 40.7417 26.2718 41.1361C25.5082 41.5353 24.5694 42.1222 24.0428 42.9812C23.5144 43.8374 23.449 44.8704 23.6525 45.6142C23.6587 45.646 23.6698 45.6697 23.6767 45.6993C22.6178 44.4739 21.7008 43.1488 20.9607 41.737C20.769 41.3604 20.5981 40.9745 20.4356 40.5859C20.7007 40.5316 21.0659 40.4425 21.471 40.3044C22.303 40.024 23.273 39.5425 24.0346 38.8486C24.8356 38.1429 25.1951 37.408 25.4739 36.8362C25.7552 36.265 25.8083 35.8689 25.8083 35.8689C25.8083 35.8689 25.1564 35.8648 24.285 35.9795C23.4148 36.0992 22.3286 36.3337 21.478 36.9623C21.0524 37.2778 20.729 37.6663 20.4844 38.0756C20.2452 38.484 20.1417 38.9033 20.0579 39.2898C20.0436 39.3659 20.0379 39.4299 20.0266 39.5042C19.6609 38.4421 19.3847 37.3544 19.203 36.2515C19.0728 35.3522 19.0177 34.4426 19.0271 33.5318C19.2982 33.5723 19.6966 33.6171 20.1679 33.623C21.0454 33.6382 22.1698 33.5107 23.1326 33.1163C24.1134 32.7215 24.8502 32.1665 25.268 31.7185C25.7635 31.2771 25.999 30.9262 25.999 30.9262C25.999 30.9262 25.3989 30.7079 24.5442 30.5253C23.6877 30.3493 22.5795 30.2074 21.5196 30.5112C20.4284 30.8077 19.7225 31.5404 19.2582 32.2109C19.1922 32.3052 19.1325 32.3962 19.0763 32.4834C19.2149 30.4261 19.6991 28.3827 20.5397 26.4583C20.7721 26.5877 21.1492 26.7769 21.6255 26.9521C22.4471 27.2576 23.5093 27.4961 24.5999 27.4587C25.1429 27.4394 25.6282 27.3529 26.045 27.2363C26.4686 27.1235 26.8548 26.9973 27.1536 26.8622C27.4452 26.7254 27.7003 26.608 27.8688 26.5146C28.0366 26.4234 28.125 26.3578 28.125 26.3578C28.125 26.3578 27.6531 25.9548 26.9301 25.5043C26.204 25.0555 25.2299 24.5576 24.1256 24.4913C23.5629 24.4545 23.0497 24.5485 22.5815 24.7092C22.1158 24.8704 21.6673 25.087 21.344 25.333C21.1879 25.4457 21.0482 25.5553 20.9218 25.6632C21.0254 25.4565 21.1176 25.2447 21.2278 25.0418C22.1489 23.3276 23.3705 21.7473 24.8128 20.3544C24.9702 20.5479 25.2566 20.8722 25.6582 21.2166C26.2906 21.7672 27.2114 22.3693 28.2278 22.6856C29.2305 22.9871 30.1754 23.0182 30.8352 22.9681C31.1806 22.956 31.454 22.9177 31.6446 22.8808C31.8311 22.8407 31.9438 22.8159 31.9438 22.8159C31.9438 22.8159 31.6721 22.2895 31.1818 21.63C30.6903 20.9749 29.9698 20.1701 28.9806 19.7597C28.4847 19.5543 27.9555 19.4553 27.4498 19.4437C26.9537 19.4436 26.4722 19.517 26.0494 19.6182C25.7986 19.6852 25.5754 19.7635 25.3836 19.8397C26.4256 18.9059 27.5689 18.066 28.7974 17.3396C28.8373 17.3443 28.8764 17.3512 28.924 17.3554C29.188 17.3849 29.5564 17.4179 29.9894 17.4499C30.8424 17.4872 31.8857 17.4714 32.8401 17.1148C33.7934 16.7531 34.5477 16.1019 35.1218 15.5225C35.6957 14.9619 36.0565 14.4444 36.0565 14.4444C36.0565 14.4444 35.5218 14.1247 34.6486 13.8817C33.7867 13.6531 32.5658 13.5453 31.4197 13.9783C30.2717 14.4085 29.485 15.2599 29.0551 15.9806C28.8276 16.331 28.6926 16.6635 28.6121 16.906C28.5945 16.9579 28.5787 17.0032 28.5661 17.047C27.2903 17.7763 26.1004 18.6262 25.0123 19.5771C25.1109 19.3879 25.222 19.1642 25.333 18.9055C25.507 18.5355 25.6785 18.0949 25.801 17.61C25.9313 17.134 26.0269 16.6264 26.0046 16.0911C25.9638 15.0168 25.5031 14.0958 24.9959 13.4416C24.4966 12.7869 23.9614 12.4158 23.9614 12.4158C23.9614 12.4158 23.8086 12.5526 23.585 12.8011C23.3618 13.0475 23.0661 13.4027 22.7802 13.8211C22.2306 14.6888 21.7412 15.8273 21.9248 16.9237C22.0942 18.0072 22.8102 18.7923 23.4523 19.3358C23.8617 19.6797 24.241 19.9231 24.4644 20.0575C22.9627 21.4598 21.6842 23.0594 20.7047 24.8065C20.5835 25.0208 20.4809 25.2417 20.3686 25.4605C20.3806 25.2952 20.3873 25.1124 20.3858 24.9135C20.3697 24.4988 20.3801 24.0459 20.3035 23.5562C20.2269 23.0665 20.0902 22.5532 19.8729 22.0701C19.4226 21.0955 18.6042 20.3798 17.8701 19.9407C17.1397 19.4978 16.4985 19.3328 16.4985 19.3328C16.4985 19.3328 16.4102 19.5129 16.2975 19.8132C16.1818 20.1152 16.0348 20.5336 15.9598 21.0319C15.8806 21.527 15.82 22.0732 15.8837 22.6252C15.9539 23.1811 16.1126 23.7251 16.4049 24.1979C16.9824 25.1419 18.0058 25.6467 18.812 25.9346C19.2902 26.1033 19.7042 26.2007 19.9697 26.2515C19.0538 28.2495 18.5146 30.3851 18.3408 32.5461C18.2968 32.4143 18.2509 32.2798 18.1914 32.1303C17.886 31.3743 17.3553 30.4111 16.579 29.6562C15.7678 28.8978 14.7175 28.5033 13.8578 28.3382C13.0058 28.1727 12.341 28.2309 12.341 28.2309C12.341 28.2309 12.299 29.0149 12.4977 29.9793C12.7698 30.9564 13.245 32.0934 14.1853 32.7795C15.1422 33.4694 16.2632 33.6026 17.1414 33.6063C17.6171 33.6062 18.0166 33.5672 18.287 33.5305C18.2608 34.4723 18.3017 35.4136 18.421 36.35C18.59 37.5059 18.8599 38.6506 19.2267 39.7714C19.1661 39.7057 19.1144 39.6445 19.0441 39.5766C18.7512 39.2741 18.356 38.9522 17.948 38.639C17.5485 38.3231 17.0756 38.0296 16.5395 37.8123C15.462 37.3788 14.3207 37.3599 13.4528 37.4894C12.5837 37.614 11.9926 37.8881 11.9926 37.8881C11.9926 37.8881 12.2897 38.6282 12.8705 39.4631C13.4488 40.2975 14.451 41.1686 15.5589 41.5065C16.7055 41.8349 17.8288 41.5787 18.6415 41.2938C19.0461 41.1486 19.3814 40.994 19.6191 40.8749C19.7814 41.282 19.9503 41.6838 20.1441 42.0796C20.8874 43.5599 21.8167 44.9579 22.903 46.2575C22.8712 46.243 22.8466 46.2301 22.8148 46.2156C21.9785 45.881 20.9614 45.4429 19.7697 45.4029C18.578 45.3628 17.523 45.712 16.7671 46.1202C16.0077 46.5227 15.5517 46.9781 15.5517 46.9781C15.5517 46.9781 16.1329 47.5633 17.0142 48.142C17.8631 48.7435 19.1715 49.2058 20.3402 49.1565C21.5204 49.1028 22.479 48.4832 23.1213 47.9527C23.4168 47.7047 23.6518 47.4705 23.8209 47.2861C25.2382 48.7034 26.8534 49.9523 28.6313 50.9944C28.7307 51.0505 28.8334 51.0957 28.9334 51.1497C28.4875 51.1357 28.0063 51.1018 27.4911 51.1229C26.9548 51.146 26.3814 51.2258 25.8176 51.4059C24.6912 51.7618 23.865 52.4125 23.3148 53.0512C22.7685 53.6767 22.5276 54.2504 22.5276 54.2504C22.5276 54.2504 22.7048 54.3576 23.0341 54.4725C23.3626 54.5895 23.8266 54.7361 24.3574 54.8565C24.8938 54.9664 25.4734 55.0866 26.0974 55.0537C26.7158 55.0312 27.3306 54.9238 27.8746 54.6969C28.9638 54.239 29.5838 53.3856 29.9733 52.6717C30.1406 52.3609 30.2585 52.0781 30.3436 51.8553C31.7278 52.4731 33.1798 52.9808 34.6726 53.3744C36.1883 53.6893 37.731 53.8845 39.2784 53.9476C39.2311 54.1816 39.183 54.4809 39.1584 54.823C39.1077 55.619 39.1886 56.635 39.8901 57.5147C40.2408 57.9546 40.7194 58.3171 41.2466 58.6093C41.773 58.9132 42.3414 59.0633 42.8714 59.2044C43.399 59.3357 43.8838 59.4102 44.2339 59.4529C44.5858 59.4984 44.7962 59.4826 44.7962 59.4826C44.7962 59.4826 44.8967 58.8782 44.7602 58.0895C44.6269 57.2898 44.2594 56.3581 43.4699 55.551C43.0752 55.1476 42.6185 54.8252 42.1638 54.5663C41.7253 54.323 41.2878 54.1382 40.8913 53.9538C41.0078 53.9509 41.1242 53.9573 41.239 53.9517C43.3553 53.8265 45.4418 53.4493 47.4469 52.838C47.4968 53.0739 47.5722 53.3812 47.6955 53.7278C47.9654 54.4731 48.4678 55.4367 49.4681 56.0038C50.46 56.5643 51.8526 56.7358 52.9195 56.5854C54.0016 56.4713 54.8266 56.2149 54.8266 56.2149C54.8266 56.2149 54.6761 55.6167 54.2321 54.9307C53.7935 54.2437 53.0634 53.4717 52.0023 52.9813C50.9412 52.491 49.8163 52.4245 48.9053 52.3478C48.8697 52.3464 48.8413 52.3467 48.8057 52.3454C50.4577 51.693 52.0267 50.8833 53.4789 49.9177C53.8627 49.6578 54.2287 49.3797 54.5905 49.0983C54.7307 49.3065 54.9411 49.5919 55.2158 49.8947C55.7695 50.5037 56.6109 51.2202 57.7892 51.4393C58.9389 51.633 60.2857 51.315 61.2429 50.8422C62.2018 50.3722 62.8632 49.8555 62.8632 49.8555C62.8632 49.8555 62.494 49.3553 61.8058 48.864C61.119 48.3683 60.1134 47.8817 58.9382 47.7847C58.351 47.7352 57.7811 47.7854 57.2612 47.8849C56.7354 47.9782 56.216 48.0847 55.7965 48.2194C55.6977 48.2499 55.62 48.2783 55.5315 48.3088C56.4571 47.4923 57.316 46.6135 58.0906 45.6798C58.7028 44.9157 59.2498 44.1105 59.7374 43.2796C59.9557 43.4314 60.283 43.6416 60.6954 43.8508C61.4634 44.2348 62.5134 44.6128 63.7226 44.4329C64.9149 44.249 65.9462 43.4668 66.7138 42.7345C67.4055 41.9892 67.7935 41.2889 67.7935 41.2889C67.7935 41.2889 67.2453 40.945 66.4039 40.7165Z" fill="#2E2D2D"/>
</g>
<path d="M52.8071 33.0415L56.3655 24.7341H58.4903L62.0487 33.0415H60.0007L59.3607 31.4377H55.4951L54.8551 33.0415H52.8071ZM56.0583 30.0185H58.7975L57.4279 26.5918L56.0583 30.0185ZM64.1705 33.0415L61.6105 24.7341H63.6201L65.2969 31.1147L67.0377 24.7341H68.9833L70.7241 31.1147L72.4009 24.7341H74.4105L71.8505 33.0415H69.6105L68.0105 27.111L66.4105 33.0415H64.1705ZM73.9821 33.0415L77.5405 24.7341H79.6653L83.224 33.0415H81.176L80.536 31.4377H76.6701L76.0301 33.0415H73.9821ZM77.2333 30.0185H79.9725L78.6029 26.5918L77.2333 30.0185ZM84.216 33.0415V24.7341H87.672C89.5664 24.7341 90.808 25.761 90.808 27.2494C90.808 28.4148 90.0528 29.2686 88.8368 29.6032L91.0256 33.0415H88.8368L86.9168 29.7532H86.136V33.0415H84.216ZM87.4288 28.4263C88.2608 28.4263 88.7856 27.9879 88.7856 27.2956C88.7856 26.6033 88.2608 26.1764 87.4416 26.1764H86.136V28.4263H87.4288ZM92.304 33.0415V24.7341H95.5424C98.3328 24.7341 100.317 26.4648 100.317 28.8878C100.317 31.2993 98.3584 33.0415 95.6192 33.0415H92.304ZM95.4656 31.53C97.2064 31.53 98.2944 30.5262 98.2944 28.8878C98.2944 27.2725 97.2192 26.2456 95.5296 26.2456H94.224V31.53H95.4656ZM49.4954 44.5795L46.9354 36.2722H48.945L50.6218 42.6527L52.3626 36.2722H54.3082L56.049 42.6527L57.7258 36.2722H59.7354L57.1754 44.5795H54.9354L53.3354 38.649L51.7354 44.5795H49.4954ZM60.8787 44.5795V36.2722H62.7987V44.5795H60.8787ZM64.7162 44.5795V36.2722H66.9178L70.617 41.9604V36.2722H72.4602V44.5795H70.297L66.5594 38.8336V44.5795H64.7162ZM74.3913 44.5795V36.2722H76.5929L80.292 41.9604V36.2722H82.1352V44.5795H79.9721L76.2345 38.8336V44.5795H74.3913ZM84.0664 44.5795V36.2722H85.9864V44.5795H84.0664ZM87.904 44.5795V36.2722H90.1056L93.8048 41.9604V36.2722H95.648V44.5795H93.4848L89.7472 38.8336V44.5795H87.904ZM101.815 44.6949C99.1016 44.6949 97.1176 42.8834 97.1176 40.4258C97.1176 37.9682 99.1016 36.1568 101.815 36.1568C104.055 36.1568 105.796 37.3452 106.142 39.0067L104.132 39.1913C103.914 38.2567 103.031 37.6336 101.815 37.6336C100.215 37.6336 99.14 38.7759 99.14 40.4258C99.14 42.0758 100.215 43.2181 101.815 43.2181C103.018 43.2181 104.004 42.6181 104.247 41.4527H101.726V40.0336H106.346V40.4258C106.346 42.895 104.606 44.6949 101.815 44.6949Z" fill="#2E2D2D"/>
</g>
<defs>
<clipPath id="clip0_9_326">
<rect width="152.8" height="64.9014" fill="white" transform="translate(0 0.856201)"/>
</clipPath>
</defs>
</svg>
