<svg width="232" height="53" viewBox="0 0 232 53" fill="none" xmlns="http://www.w3.org/2000/svg">
<path d="M13.52 0.98L19.64 7.25V13.37L15.32 17.72V19.07C14.96 19.43 14.75 19.64 14.39 20H5.93L0.71 14.39V1.91L1.64 0.98H13.52ZM16.37 15.68V4.25H7.67L4.85 1.73L3.98 2.6V9.56L2.33 11.21V15.05L3.98 16.73H15.32L16.37 15.68ZM28.1469 0.98H35.9169L41.5269 6.62V20H39.1869C38.8269 19.64 38.6169 19.43 38.2569 19.07V12.14L37.5369 11.42H27.6369L25.7769 9.56L24.1269 11.21V15.11C24.1269 15.11 25.1169 16.1 25.7769 16.73V20H23.4369C23.0769 19.64 22.8669 19.43 22.5069 19.07V6.62L28.1469 0.98ZM39.9069 9.77V5.93L38.1969 4.25H25.7769V8.84L26.4969 9.56H36.3969L38.2569 11.42L39.9069 9.77ZM60.1576 0.98H62.4976L63.4276 1.91V8.66L60.2776 11.78L63.4276 14.96V20H61.0876C60.7276 19.64 60.5176 19.43 60.1576 19.07V12.38L59.2276 11.42H50.4676L48.6076 9.56C48.6076 9.56 47.2876 10.88 46.9576 11.21V15.11L48.6076 16.73V20H46.2676L45.3376 19.07V1.91L46.2676 0.98H48.6076V8.84L49.3276 9.56H58.0876L59.9476 11.42L61.8076 9.56V5.9L60.1576 4.25V0.98ZM72.6195 0.98H80.3895L85.9995 6.62V20H83.6595C83.2995 19.64 83.0895 19.43 82.7295 19.07V12.14L82.0095 11.42H72.1095L70.2495 9.56L68.5995 11.21V15.11C68.5995 15.11 69.5895 16.1 70.2495 16.73V20H67.9095C67.5495 19.64 67.3395 19.43 66.9795 19.07V6.62L72.6195 0.98ZM84.3795 9.77V5.93L82.6695 4.25H70.2495V8.84L70.9695 9.56H80.8695L82.7295 11.42L84.3795 9.77ZM108.83 5.12V8.03L105.65 11.42L108.83 14.63V20H106.49C106.13 19.64 105.92 19.43 105.56 19.07V12.05L104.93 11.42H94.9402L93.0802 9.56L91.4302 11.21V15.11L93.0802 16.73V20H90.7402L89.8102 19.07V1.91L90.7402 0.98H104.72L108.83 5.12ZM107.21 8.63V4.25H96.7702L93.9502 1.73L93.0802 2.6V8.84L93.8002 9.56H106.28L107.21 8.63ZM2 32.98H15.08C15.74 33.64 16.1 34 16.76 34.66V36.25H8.03L5.21 33.73L4.34 34.6V40.84L5.06 41.56H15.35C15.65 41.86 15.83 42.01 16.1 42.31V43.42H6.2L4.34 41.56L2.69 43.21V47.11L4.34 48.73V52H2C1.64 51.64 1.43 51.43 1.07 51.07V33.91C1.43 33.55 1.64 33.34 2 32.98ZM22.0058 32.98C22.3958 33.34 22.6058 33.55 22.9658 33.91V52H20.6258C20.2658 51.64 20.0558 51.43 19.6958 51.07V43.42L21.3158 41.77L22.1258 40.96V38.71L19.6958 36.25V32.98H22.0058ZM30.0542 48.73H40.7942V51.07L39.8342 52H32.0042L26.7842 46.36V33.91C27.1442 33.55 27.3542 33.34 27.7142 32.98H30.0542V41.56L28.4042 43.21V47.05L30.0542 48.73ZM70.3885 33.91V36.25L72.8485 38.71V52H70.5085L69.5785 51.07V43.42L71.1985 41.77V37.93L69.5185 36.25H61.1185V41.56L58.2685 43.21V47.11C58.2685 47.11 59.5885 48.43 59.8885 48.73V52H57.5485L56.6185 51.07V43.42L57.8485 42.64V37.93L56.1385 36.25H46.9585V41.56L45.3085 43.21V47.11L46.9585 48.73V52H44.6185L43.6885 51.07V38.62L49.3285 32.98H56.4985L59.4985 35.74C60.8185 34.42 60.6385 34.57 62.2585 32.98H69.4585L70.3885 33.91ZM88.1914 32.98H101.271C101.931 33.64 102.291 34 102.951 34.66V36.25H94.2214L91.4014 33.73L90.5314 34.6V40.84L91.2514 41.56H101.541C101.841 41.86 102.021 42.01 102.291 42.31V43.42H92.3914L90.5314 41.56L88.8814 43.21V47.11L90.5314 48.73V52H88.1914C87.8314 51.64 87.6214 51.43 87.2614 51.07V33.91C87.6214 33.55 87.8314 33.34 88.1914 32.98ZM106.757 32.98H119.837C120.497 33.64 120.857 34 121.517 34.66V36.25H112.787L109.967 33.73L109.097 34.6V40.84L109.817 41.56H120.107C120.407 41.86 120.557 42.01 120.857 42.31V43.42H110.957L109.097 41.56L107.447 43.21V47.05L109.097 48.73H121.217V51.07L120.287 52H111.047L105.827 46.36V33.91C106.187 33.55 106.397 33.34 106.757 32.98ZM137.094 32.98C139.314 35.17 140.544 36.4 142.734 38.62V40.09H140.394L139.464 39.16V36.25H127.044L125.334 37.93V40.84L126.084 41.56H139.464L142.734 44.86V46.36L139.404 49.72V51.07L138.474 52.03H129.354L123.714 46.36V44.89H126.024L126.984 45.85V48.73H139.404L141.114 47.05V44.17L140.364 43.42H126.984L123.714 40.12V38.62L127.044 35.26V33.91L127.974 32.98H137.094ZM146.078 32.98H161.738L163.418 34.66V36.25H159.248L156.428 33.73L155.558 34.6V41.56L153.908 43.21V47.11L155.558 48.73V52H153.218L152.258 51.07V34.6L151.388 33.73L148.568 36.25H144.398V34.66L146.078 32.98ZM168.666 32.98C169.056 33.34 169.266 33.55 169.626 33.91V52H167.286C166.926 51.64 166.716 51.43 166.356 51.07V43.42L167.976 41.77L168.786 40.96V38.71L166.356 36.25V32.98H168.666ZM190.754 32.98L191.684 33.91V46.45L185.894 52H177.404L176.414 51.04V49L173.414 46V32.98H175.724L176.684 33.91V41.56L175.034 43.21V46.78L177.044 48.73H188.444L190.064 47.14V42.85L190.004 42.82H190.064L188.414 41.17V32.98H190.754ZM200.735 32.98H208.505L214.115 38.62V52H211.775C211.415 51.64 211.205 51.43 210.845 51.07V44.14L210.125 43.42H200.225L198.365 41.56L196.715 43.21V47.11C196.715 47.11 197.705 48.1 198.365 48.73V52H196.025C195.665 51.64 195.455 51.43 195.095 51.07V38.62L200.735 32.98ZM212.495 41.77V37.93L210.785 36.25H198.365V40.84L199.085 41.56H208.985L210.845 43.42L212.495 41.77ZM220.835 48.73H231.575V51.07L230.615 52H222.785L217.565 46.36V33.91C217.925 33.55 218.135 33.34 218.495 32.98H220.835V41.56L219.185 43.21V47.05L220.835 48.73Z" fill="white"/>
</svg>
