<svg width="1413" height="78" viewBox="0 0 1413 78" fill="none" xmlns="http://www.w3.org/2000/svg">
<path d="M52.0175 0.92L76.4975 26V50.48L59.2175 67.88V73.28C57.7775 74.72 56.9375 75.56 55.4975 77H21.6575L0.7775 54.56V4.63999L4.4975 0.92H52.0175ZM63.4175 59.72V14H28.6175L17.3375 3.92L13.8575 7.39999V35.24L7.2575 41.84V57.2L13.8575 63.92H59.2175L63.4175 59.72ZM110.525 0.92H141.605L164.045 23.48V77H154.685C153.245 75.56 152.405 74.72 150.965 73.28V45.56L148.085 42.68H108.485L101.045 35.24L94.445 41.84V57.44C94.445 57.44 98.405 61.4 101.045 63.92V77H91.685C90.245 75.56 89.405 74.72 87.965 73.28V23.48L110.525 0.92ZM157.565 36.08V20.72L150.725 14H101.045V32.36L103.925 35.24H143.525L150.965 42.68L157.565 36.08ZM238.568 0.92H247.928L251.648 4.63999V31.64L239.048 44.12L251.648 56.84V77H242.288C240.848 75.56 240.008 74.72 238.568 73.28V46.52L234.848 42.68H199.808L192.368 35.24C192.368 35.24 187.088 40.52 185.768 41.84V57.44L192.368 63.92V77H183.008L179.288 73.28V4.63999L183.008 0.92H192.368V32.36L195.248 35.24H230.288L237.728 42.68L245.168 35.24V20.6L238.568 14V0.92ZM288.416 0.92H319.496L341.936 23.48V77H332.576C331.136 75.56 330.296 74.72 328.856 73.28V45.56L325.976 42.68H286.376L278.936 35.24L272.336 41.84V57.44C272.336 57.44 276.296 61.4 278.936 63.92V77H269.576C268.136 75.56 267.296 74.72 265.856 73.28V23.48L288.416 0.92ZM335.456 36.08V20.72L328.616 14H278.936V32.36L281.816 35.24H321.416L328.856 42.68L335.456 36.08ZM433.258 17.48V29.12L420.538 42.68L433.258 55.52V77H423.898C422.458 75.56 421.618 74.72 420.178 73.28V45.2L417.658 42.68H377.698L370.258 35.24L363.658 41.84V57.44L370.258 63.92V77H360.898L357.178 73.28V4.63999L360.898 0.92H416.818L433.258 17.48ZM426.778 31.52V14H385.018L373.738 3.92L370.258 7.39999V32.36L373.138 35.24H423.058L426.778 31.52ZM494.023 0.92H546.343C548.983 3.55999 550.423 5 553.063 7.64V14H518.143L506.863 3.92L503.383 7.39999V32.36L506.263 35.24H547.423C548.623 36.44 549.343 37.04 550.423 38.24V42.68H510.823L503.383 35.24L496.783 41.84V57.44L503.383 63.92V77H494.023C492.583 75.56 491.743 74.72 490.303 73.28V4.63999C491.743 3.2 492.583 2.36 494.023 0.92ZM574.047 0.92C575.607 2.36 576.447 3.2 577.887 4.63999V77H568.527C567.087 75.56 566.247 74.72 564.807 73.28V42.68L571.287 36.08L574.527 32.84V23.84L564.807 14V0.92H574.047ZM606.24 63.92H649.2V73.28L645.36 77H614.04L593.16 54.44V4.63999C594.6 3.2 595.44 2.36 596.88 0.92H606.24V35.24L599.64 41.84V57.2L606.24 63.92ZM767.578 4.63999V14L777.418 23.84V77H768.058L764.338 73.28V42.68L770.818 36.08V20.72L764.098 14H730.498V35.24L719.098 41.84V57.44C719.098 57.44 724.378 62.72 725.578 63.92V77H716.218L712.498 73.28V42.68L717.418 39.56V20.72L710.578 14H673.858V35.24L667.258 41.84V57.44L673.858 63.92V77H664.498L660.778 73.28V23.48L683.338 0.92H712.018L724.018 11.96C729.298 6.68 728.578 7.28 735.058 0.92H763.858L767.578 4.63999ZM838.789 0.92H891.109C893.749 3.55999 895.189 5 897.829 7.64V14H862.909L851.629 3.92L848.149 7.39999V32.36L851.029 35.24H892.189C893.389 36.44 894.109 37.04 895.189 38.24V42.68H855.589L848.149 35.24L841.549 41.84V57.44L848.149 63.92V77H838.789C837.349 75.56 836.509 74.72 835.069 73.28V4.63999C836.509 3.2 837.349 2.36 838.789 0.92ZM913.052 0.92H965.372C968.012 3.55999 969.452 5 972.092 7.64V14H937.172L925.892 3.92L922.412 7.39999V32.36L925.292 35.24H966.452C967.652 36.44 968.252 37.04 969.452 38.24V42.68H929.852L922.412 35.24L915.812 41.84V57.2L922.412 63.92H970.892V73.28L967.172 77H930.212L909.332 54.44V4.63999C910.772 3.2 911.612 2.36 913.052 0.92ZM1034.4 0.92C1043.28 9.67999 1048.2 14.6 1056.96 23.48V29.36H1047.6L1043.88 25.64V14H994.2L987.36 20.72V32.36L990.36 35.24H1043.88L1056.96 48.44V54.44L1043.64 67.88V73.28L1039.92 77.12H1003.44L980.88 54.44V48.56H990.12L993.96 52.4V63.92H1043.64L1050.48 57.2V45.68L1047.48 42.68H993.96L980.88 29.48V23.48L994.2 10.04V4.63999L997.92 0.92H1034.4ZM1070.33 0.92H1132.97L1139.69 7.64V14H1123.01L1111.73 3.92L1108.25 7.39999V35.24L1101.65 41.84V57.44L1108.25 63.92V77H1098.89L1095.05 73.28V7.39999L1091.57 3.92L1080.29 14H1063.61V7.64L1070.33 0.92ZM1160.69 0.92C1162.25 2.36 1163.09 3.2 1164.53 4.63999V77H1155.17C1153.73 75.56 1152.89 74.72 1151.45 73.28V42.68L1157.93 36.08L1161.17 32.84V23.84L1151.45 14V0.92H1160.69ZM1249.04 0.92L1252.76 4.63999V54.8L1229.6 77H1195.64L1191.68 73.16V65L1179.68 53V0.92H1188.92L1192.76 4.63999V35.24L1186.16 41.84V56.12L1194.2 63.92H1239.8L1246.28 57.56V40.4L1246.04 40.28H1246.28L1239.68 33.68V0.92H1249.04ZM1288.96 0.92H1320.04L1342.48 23.48V77H1333.12C1331.68 75.56 1330.84 74.72 1329.4 73.28V45.56L1326.52 42.68H1286.92L1279.48 35.24L1272.88 41.84V57.44C1272.88 57.44 1276.84 61.4 1279.48 63.92V77H1270.12C1268.68 75.56 1267.84 74.72 1266.4 73.28V23.48L1288.96 0.92ZM1336 36.08V20.72L1329.16 14H1279.48V32.36L1282.36 35.24H1321.96L1329.4 42.68L1336 36.08ZM1369.37 63.92H1412.33V73.28L1408.49 77H1377.17L1356.29 54.44V4.63999C1357.73 3.2 1358.57 2.36 1360.01 0.92H1369.37V35.24L1362.77 41.84V57.2L1369.37 63.92Z" fill="#FFF2E1"/>
</svg>
