<svg width="155" height="35" viewBox="0 0 155 35" fill="none" xmlns="http://www.w3.org/2000/svg">
<path d="M46.0062 0.32L50.0862 4.5V8.58L47.2062 11.48V12.38C46.9662 12.62 46.8262 12.76 46.5862 13H40.9462L37.4662 9.26V0.939999L38.0862 0.32H46.0062ZM47.9062 10.12V2.5H42.1062L40.2262 0.819999L39.6462 1.4V6.04L38.5462 7.14V9.7L39.6462 10.82H47.2062L47.9062 10.12ZM55.7574 0.32H60.9374L64.6774 4.08V13H63.1174C62.8774 12.76 62.7374 12.62 62.4974 12.38V7.76L62.0174 7.28H55.4174L54.1774 6.04L53.0774 7.14V9.74C53.0774 9.74 53.7374 10.4 54.1774 10.82V13H52.6174C52.3774 12.76 52.2374 12.62 51.9974 12.38V4.08L55.7574 0.32ZM63.5974 6.18V3.62L62.4574 2.5H54.1774V5.56L54.6574 6.04H61.2574L62.4974 7.28L63.5974 6.18ZM77.0979 0.32H78.6579L79.2779 0.939999V5.44L77.1779 7.52L79.2779 9.64V13H77.7179C77.4779 12.76 77.3379 12.62 77.0979 12.38V7.92L76.4779 7.28H70.6379L69.3979 6.04C69.3979 6.04 68.5179 6.92 68.2979 7.14V9.74L69.3979 10.82V13H67.8379L67.2179 12.38V0.939999L67.8379 0.32H69.3979V5.56L69.8779 6.04H75.7179L76.9579 7.28L78.1979 6.04V3.6L77.0979 2.5V0.32ZM85.4059 0.32H90.5859L94.3259 4.08V13H92.7659C92.5259 12.76 92.3859 12.62 92.1459 12.38V7.76L91.6659 7.28H85.0659L83.8259 6.04L82.7259 7.14V9.74C82.7259 9.74 83.3859 10.4 83.8259 10.82V13H82.2659C82.0259 12.76 81.8859 12.62 81.6459 12.38V4.08L85.4059 0.32ZM93.2459 6.18V3.62L92.1059 2.5H83.8259V5.56L84.3059 6.04H90.9059L92.1459 7.28L93.2459 6.18ZM109.546 3.08V5.02L107.426 7.28L109.546 9.42V13H107.986C107.746 12.76 107.606 12.62 107.366 12.38V7.7L106.946 7.28H100.286L99.0463 6.04L97.9463 7.14V9.74L99.0463 10.82V13H97.4863L96.8663 12.38V0.939999L97.4863 0.32H106.806L109.546 3.08ZM108.466 5.42V2.5H101.506L99.6263 0.819999L99.0463 1.4V5.56L99.5263 6.04H107.846L108.466 5.42ZM1.08008 21.32H9.80008C10.2401 21.76 10.4801 22 10.9201 22.44V23.5H5.10008L3.22008 21.82L2.64008 22.4V26.56L3.12008 27.04H9.98008C10.1801 27.24 10.3001 27.34 10.4801 27.54V28.28H3.88008L2.64008 27.04L1.54008 28.14V30.74L2.64008 31.82V34H1.08008C0.840078 33.76 0.700078 33.62 0.460078 33.38V21.94C0.700078 21.7 0.840078 21.56 1.08008 21.32ZM14.4173 21.32C14.6773 21.56 14.8173 21.7 15.0573 21.94V34H13.4973C13.2573 33.76 13.1173 33.62 12.8773 33.38V28.28L13.9573 27.18L14.4973 26.64V25.14L12.8773 23.5V21.32H14.4173ZM19.7829 31.82H26.9429V33.38L26.3029 34H21.0829L17.6029 30.24V21.94C17.8429 21.7 17.9829 21.56 18.2229 21.32H19.7829V27.04L18.6829 28.14V30.7L19.7829 31.82ZM46.6724 21.94V23.5L48.3124 25.14V34H46.7524L46.1324 33.38V28.28L47.2124 27.18V24.62L46.0924 23.5H40.4924V27.04L38.5924 28.14V30.74C38.5924 30.74 39.4724 31.62 39.6724 31.82V34H38.1124L37.4924 33.38V28.28L38.3124 27.76V24.62L37.1724 23.5H31.0524V27.04L29.9524 28.14V30.74L31.0524 31.82V34H29.4924L28.8724 33.38V25.08L32.6324 21.32H37.4124L39.4124 23.16C40.2924 22.28 40.1724 22.38 41.2524 21.32H46.0524L46.6724 21.94ZM58.541 21.32H67.261C67.701 21.76 67.941 22 68.381 22.44V23.5H62.561L60.681 21.82L60.101 22.4V26.56L60.581 27.04H67.441C67.641 27.24 67.761 27.34 67.941 27.54V28.28H61.341L60.101 27.04L59.001 28.14V30.74L60.101 31.82V34H58.541C58.301 33.76 58.161 33.62 57.921 33.38V21.94C58.161 21.7 58.301 21.56 58.541 21.32ZM70.9182 21.32H79.6382C80.0782 21.76 80.3182 22 80.7582 22.44V23.5H74.9382L73.0582 21.82L72.4782 22.4V26.56L72.9582 27.04H79.8182C80.0182 27.24 80.1182 27.34 80.3182 27.54V28.28H73.7182L72.4782 27.04L71.3782 28.14V30.7L72.4782 31.82H80.5582V33.38L79.9382 34H73.7782L70.2982 30.24V21.94C70.5382 21.7 70.6782 21.56 70.9182 21.32ZM91.1429 21.32C92.6229 22.78 93.4429 23.6 94.9029 25.08V26.06H93.3429L92.7229 25.44V23.5H84.4429L83.3029 24.62V26.56L83.8029 27.04H92.7229L94.9029 29.24V30.24L92.6829 32.48V33.38L92.0629 34.02H85.9829L82.2229 30.24V29.26H83.7629L84.4029 29.9V31.82H92.6829L93.8229 30.7V28.78L93.3229 28.28H84.4029L82.2229 26.08V25.08L84.4429 22.84V21.94L85.0629 21.32H91.1429ZM97.132 21.32H107.572L108.692 22.44V23.5H105.912L104.032 21.82L103.452 22.4V27.04L102.352 28.14V30.74L103.452 31.82V34H101.892L101.252 33.38V22.4L100.672 21.82L98.792 23.5H96.012V22.44L97.132 21.32ZM112.191 21.32C112.451 21.56 112.591 21.7 112.831 21.94V34H111.271C111.031 33.76 110.891 33.62 110.651 33.38V28.28L111.731 27.18L112.271 26.64V25.14L110.651 23.5V21.32H112.191ZM126.916 21.32L127.536 21.94V30.3L123.676 34H118.016L117.356 33.36V32L115.356 30V21.32H116.896L117.536 21.94V27.04L116.436 28.14V30.52L117.776 31.82H125.376L126.456 30.76V27.9L126.416 27.88H126.456L125.356 26.78V21.32H126.916ZM133.57 21.32H138.75L142.49 25.08V34H140.93C140.69 33.76 140.55 33.62 140.31 33.38V28.76L139.83 28.28H133.23L131.99 27.04L130.89 28.14V30.74C130.89 30.74 131.55 31.4 131.99 31.82V34H130.43C130.19 33.76 130.05 33.62 129.81 33.38V25.08L133.57 21.32ZM141.41 27.18V24.62L140.27 23.5H131.99V26.56L132.47 27.04H139.07L140.31 28.28L141.41 27.18ZM146.97 31.82H154.13V33.38L153.49 34H148.27L144.79 30.24V21.94C145.03 21.7 145.17 21.56 145.41 21.32H146.97V27.04L145.87 28.14V30.7L146.97 31.82Z" fill="white"/>
</svg>
