<svg width="1949" height="122" viewBox="0 0 1949 122" fill="none" xmlns="http://www.w3.org/2000/svg">
<path d="M6 0.539999H94.54L120.57 26.76V45.19L100.43 66.66H32.6L20.82 54.88L10.37 65.33V90.03L20.82 100.29V121H6L0.110001 115.11V6.42999L6 0.539999ZM110.31 21.25H44.19L26.33 5.28999L20.82 10.8V50.32L25.38 54.88H104.42L110.31 48.99V21.25ZM264.369 26.76V45.19L244.229 66.66L264.369 86.99V121H249.549C247.269 118.72 245.939 117.39 243.659 115.11V70.65L239.669 66.66H176.399L164.619 54.88L154.169 65.33V90.03L164.619 100.29V121H149.799L143.909 115.11V6.42999L149.799 0.539999H238.339L264.369 26.76ZM254.109 48.99V21.25H187.989L170.129 5.28999L164.619 10.8V50.32L169.179 54.88H248.219L254.109 48.99ZM291.318 0.539999H374.158C378.338 4.71999 380.618 7 384.798 11.18V21.25H329.508L311.648 5.28999L306.138 10.8V50.32L310.698 54.88H375.868C377.768 56.78 378.718 57.73 380.618 59.63V66.66H317.918L306.138 54.88L295.688 65.33V89.65L306.138 100.29H382.898V115.11L377.008 121H318.488L285.428 85.28V6.42999C287.708 4.15 289.038 2.81999 291.318 0.539999ZM513.808 0.539999L519.698 6.42999V85.85L483.028 121H429.258L422.988 114.92V102L403.988 83V0.539999H418.618L424.698 6.42999V54.88L414.248 65.33V87.94L426.978 100.29H499.178L509.438 90.22V63.05L509.058 62.86H509.438L498.988 52.41V0.539999H513.808ZM556.307 0.539999C558.777 2.81999 560.107 4.15 562.387 6.42999V121H547.567C545.287 118.72 543.957 117.39 541.677 115.11V66.66L551.937 56.21L557.067 51.08V36.83L541.677 21.25V0.539999H556.307ZM669.03 0.539999L704.75 36.26V85.28L683.66 106.56V115.11L677.77 121H620.01L584.29 85.28V36.26L605.38 14.98V6.42999L611.27 0.539999H669.03ZM694.49 89.65V65.33L684.04 54.88V21.25H605.38L594.55 31.89V56.21L605 66.66V100.29H683.66L694.49 89.65ZM823.806 6.42999L829.696 0.539999H844.516V84.71L829.126 100.29V115.11L823.046 121H759.776L724.056 85.28V6.42999L729.946 0.539999H744.766V21.25C744.766 21.25 738.496 27.52 734.316 31.7V56.21L744.766 66.66V100.29H823.426L834.256 89.65V65.33C830.076 61.15 823.806 54.88 823.806 54.88V6.42999ZM947.69 0.539999C961.75 14.41 969.54 22.2 983.41 36.26V45.57H968.59L962.7 39.68V21.25H884.04L873.21 31.89V50.32L877.96 54.88H962.7L983.41 75.78V85.28L962.32 106.56V115.11L956.43 121.19H898.67L862.95 85.28V75.97H877.58L883.66 82.05V100.29H962.32L973.15 89.65V71.41L968.4 66.66H883.66L862.95 45.76V36.26L884.04 14.98V6.42999L889.93 0.539999H947.69ZM1074.51 0.539999H1157.35C1161.53 4.71999 1163.81 7 1167.99 11.18V21.25H1112.7L1094.84 5.28999L1089.33 10.8V50.32L1093.89 54.88H1159.06C1160.96 56.78 1161.91 57.73 1163.81 59.63V66.66H1101.11L1089.33 54.88L1078.88 65.33V89.65L1089.33 100.29H1166.09V115.11L1160.2 121H1101.68L1068.62 85.28V6.42999C1070.9 4.15 1072.23 2.81999 1074.51 0.539999ZM1268.5 0.539999L1307.26 40.25V79.01L1279.9 106.56V115.11C1277.62 117.39 1276.29 118.72 1274.01 121H1220.43L1187.37 85.47V6.42999L1193.26 0.539999H1268.5ZM1286.55 93.64V21.25H1231.45L1213.59 5.28999L1208.08 10.8V54.88L1197.63 65.33V89.65L1208.08 100.29H1279.9L1286.55 93.64ZM1340.43 0.539999C1342.9 2.81999 1344.23 4.15 1346.51 6.42999V121H1331.69C1329.41 118.72 1328.08 117.39 1325.8 115.11V66.66L1336.06 56.21L1341.19 51.08V36.83L1325.8 21.25V0.539999H1340.43ZM1377.72 0.539999H1476.9L1487.54 11.18V21.25H1461.13L1443.27 5.28999L1437.76 10.8V54.88L1427.31 65.33V90.03L1437.76 100.29V121H1422.94L1416.86 115.11V10.8L1411.35 5.28999L1393.49 21.25H1367.08V11.18L1377.72 0.539999ZM1520.78 0.539999C1523.25 2.81999 1524.58 4.15 1526.86 6.42999V121H1512.04C1509.76 118.72 1508.43 117.39 1506.15 115.11V66.66L1516.41 56.21L1521.54 51.08V36.83L1506.15 21.25V0.539999H1520.78ZM1633.5 0.539999L1669.22 36.26V85.28L1648.13 106.56V115.11L1642.24 121H1584.48L1548.76 85.28V36.26L1569.85 14.98V6.42999L1575.74 0.539999H1633.5ZM1658.96 89.65V65.33L1648.51 54.88V21.25H1569.85L1559.02 31.89V56.21L1569.47 66.66V100.29H1648.13L1658.96 89.65ZM1793.79 21.25L1809.18 36.83V121H1794.36L1788.47 115.11V66.66L1798.92 56.21V31.89L1788.09 21.25H1709.43V54.88L1698.98 65.33V90.03L1709.43 100.29V121H1694.61L1688.72 115.11V36.26L1724.44 0.539999H1787.71L1793.79 6.42999V21.25ZM1912.35 0.539999C1926.41 14.41 1934.2 22.2 1948.07 36.26V45.57H1933.25L1927.36 39.68V21.25H1848.7L1837.87 31.89V50.32L1842.62 54.88H1927.36L1948.07 75.78V85.28L1926.98 106.56V115.11L1921.09 121.19H1863.33L1827.61 85.28V75.97H1842.24L1848.32 82.05V100.29H1926.98L1937.81 89.65V71.41L1933.06 66.66H1848.32L1827.61 45.76V36.26L1848.7 14.98V6.42999L1854.59 0.539999H1912.35Z" fill="#957F60"/>
</svg>
